<svg xmlns="http://www.w3.org/2000/svg" viewBox="0 0 64 64">
  <rect width="64" height="64" fill="#fff"/>
  <path fill="#000" transform="translate(9 -4)" d="M32.6 52.3c1.3 2.1 2.9 3.6 5.9 3.6 2.5 0 4.1-1.2 4.1-2.9 0-2-1.6-2.7-4.3-3.9l-1.5-.6c-4.2-1.8-7-4-7-8.8 0-4.4 3.4-7.7 8.6-7.7 3.7 0 6.4 1.3 8.4 4.7l-4.6 2.9c-1-1.8-2.1-2.5-3.8-2.5-1.7 0-2.8 1.1-2.8 2.5 0 1.8 1.1 2.5 3.6 3.6l1.5.6c5 2.1 7.7 4.3 7.7 9.2 0 5.3-4.2 8.2-9.8 8.2-5.5 0-9-2.6-10.8-6.1zM14.6 52.8c1 1.7 1.8 3.1 3.9 3.1 2 0 3.3-.8 3.3-3.9V32.3h5.9v19.8c0 6.1-3.6 8.9-8.8 8.9-4.7 0-7.5-2.5-8.9-5.4z"/>
</svg>
